<svg viewBox="0 0 160 160" xmlns="http://www.w3.org/2000/svg" xmlns:xlink="http://www.w3.org/1999/xlink"><defs><linearGradient x1="100%" y1="100%" x2="50%" y2="50%" id="a"><stop stop-color="#8700FF" offset="0%"/><stop stop-color="#EE00E1" stop-opacity="0" offset="100%"/></linearGradient><linearGradient x1="0%" y1="100%" x2="50%" y2="50%" id="c"><stop stop-color="#E00" offset="0%"/><stop stop-color="#EE00E1" stop-opacity="0" offset="100%"/></linearGradient><linearGradient x1="100%" y1="0%" x2="50%" y2="50%" id="d"><stop stop-color="#00B1EE" offset="0%"/><stop stop-color="#00B1EE" stop-opacity="0" offset="100%"/></linearGradient><linearGradient x1="-17.876%" y1="21.021%" x2="48.935%" y2="50%" id="e"><stop stop-color="#FFA456" offset="0%"/><stop stop-color="#FFA456" stop-opacity="0" offset="100%"/></linearGradient><path d="M89.905 152.381a3.81 3.81 0 1 1 0 7.619 3.81 3.81 0 0 1 0-7.619Zm-23.737 2.79a3.81 3.81 0 1 1 7.36 1.973 3.81 3.81 0 0 1-7.36-1.972Zm46.799-5.126a3.81 3.81 0 1 1-7.36 1.972 3.81 3.81 0 0 1 7.36-1.972Zm-60.58-2.409a3.81 3.81 0 1 1-3.81 6.598 3.81 3.81 0 0 1 3.81-6.598Zm28.777-4.373a3.302 3.302 0 1 1-.804 6.554 3.302 3.302 0 0 1 .804-6.554Zm-16.684-1.899a3.338 3.338 0 1 1-2.5 6.19 3.338 3.338 0 0 1 2.5-6.19Zm36.901 2.383a3.338 3.338 0 1 1-6.61.93 3.338 3.338 0 0 1 6.61-.93Zm28.591-4.621a3.81 3.81 0 1 1-6.598 3.81 3.81 3.81 0 0 1 6.598-3.81Zm-94.15-.941a3.81 3.81 0 1 1-5.387 5.387 3.81 3.81 0 0 1 5.388-5.387Zm52.547-.486a3.023 3.023 0 1 1 0 6.047 3.023 3.023 0 0 1 0-6.047Zm-15.136.077a3.023 3.023 0 1 1-1.565 5.841 3.023 3.023 0 0 1 1.565-5.84Zm-24.278-2.592a3.338 3.338 0 1 1-4.017 5.331 3.338 3.338 0 0 1 4.017-5.331Zm68.381.883a3.338 3.338 0 1 1-6.145 2.609 3.338 3.338 0 0 1 6.145-2.609Zm-10.664-.222a3.023 3.023 0 1 1-5.841 1.565 3.023 3.023 0 0 1 5.84-1.565Zm-48.079-1.912a3.023 3.023 0 1 1-3.023 5.237 3.023 3.023 0 0 1 3.023-5.237Zm22.334-3.47a2.62 2.62 0 1 1-.639 5.201 2.62 2.62 0 0 1 .639-5.202Zm-13.241-1.507a2.65 2.65 0 1 1-1.985 4.912 2.65 2.65 0 0 1 1.985-4.912Zm29.286 1.891a2.65 2.65 0 1 1-5.246.737 2.65 2.65 0 0 1 5.246-.737Zm23.196-3.668a3.023 3.023 0 1 1-5.236 3.024 3.023 3.023 0 0 1 5.236-3.024Zm-74.721-.747a3.023 3.023 0 1 1-4.276 4.276 3.023 3.023 0 0 1 4.276-4.276Zm98.125-2.255a3.81 3.81 0 1 1-5.387 5.388 3.81 3.81 0 0 1 5.387-5.388ZM35.56 125.196a3.338 3.338 0 1 1-5.26 4.11 3.338 3.338 0 0 1 5.26-4.11Zm-13.29-.428a3.81 3.81 0 1 1-6.599 3.81 3.81 3.81 0 0 1 6.599-3.81Zm108.491-.249a3.338 3.338 0 1 1-5.26 4.11 3.338 3.338 0 0 1 5.26-4.11Zm-75.396-.468a2.65 2.65 0 1 1-3.188 4.231 2.65 2.65 0 0 1 3.188-4.231Zm54.271.7a2.65 2.65 0 1 1-4.877 2.071 2.65 2.65 0 0 1 4.877-2.07Zm21.327-9.436a3.023 3.023 0 1 1-4.276 4.276 3.023 3.023 0 0 1 4.276-4.276Zm-86.23.808a2.65 2.65 0 1 1-4.175 3.262 2.65 2.65 0 0 1 4.175-3.262Zm-10.043-.339a3.023 3.023 0 1 1-5.236 3.024 3.023 3.023 0 0 1 5.236-3.024Zm85.6-.197a2.65 2.65 0 1 1-4.175 3.262 2.65 2.65 0 0 1 4.175-3.262Zm-95.085-3.507a3.338 3.338 0 1 1-6.145 2.609 3.338 3.338 0 0 1 6.145-2.609Zm115.534-2.19a3.338 3.338 0 1 1-4.018 5.332 3.338 3.338 0 0 1 4.018-5.331Zm12.102-3.672a3.81 3.81 0 1 1-3.81 6.599 3.81 3.81 0 0 1 3.81-6.599Zm-140.191 2.083a3.81 3.81 0 1 1-7.36 1.972 3.81 3.81 0 0 1 7.36-1.972Zm23.865-2.586a2.65 2.65 0 1 1-4.877 2.07 2.65 2.65 0 0 1 4.877-2.07Zm91.693-1.738a2.65 2.65 0 1 1-3.188 4.231 2.65 2.65 0 0 1 3.188-4.231Zm10.11-2.915a3.023 3.023 0 1 1-3.023 5.237 3.023 3.023 0 0 1 3.023-5.237Zm-111.262 1.653a3.023 3.023 0 1 1-5.841 1.565 3.023 3.023 0 0 1 5.84-1.565Zm-8.458-5.983a3.338 3.338 0 1 1-6.611.93 3.338 3.338 0 0 1 6.61-.93Zm127.992-3.554a3.338 3.338 0 1 1-2.5 6.19 3.338 3.338 0 0 1 2.5-6.19Zm-115.319.356a2.65 2.65 0 1 1-5.246.737 2.65 2.65 0 0 1 5.246-.737Zm101.581-2.821a2.65 2.65 0 1 1-1.984 4.912 2.65 2.65 0 0 1 1.984-4.912Zm19.627-1.547a3.81 3.81 0 1 1 7.36 1.972 3.81 3.81 0 0 1-7.36-1.972ZM3.81 86.096a3.81 3.81 0 1 1 0 7.618 3.81 3.81 0 0 1 0-7.619Zm137.923-.705a3.023 3.023 0 1 1-1.565 5.84 3.023 3.023 0 0 1 1.565-5.84Zm-121.694-.3a3.023 3.023 0 1 1 0 6.047 3.023 3.023 0 0 1 0-6.047Zm-6.938-8.368a3.302 3.302 0 1 1-.805 6.554 3.302 3.302 0 0 1 .805-6.554Zm13.807.93a2.62 2.62 0 1 1-.638 5.202 2.62 2.62 0 0 1 .638-5.202Zm120.796-1.946a3.302 3.302 0 1 1-.805 6.554 3.302 3.302 0 0 1 .805-6.554Zm-13.968 1.14a2.62 2.62 0 1 1-.638 5.201 2.62 2.62 0 0 1 .638-5.201Zm7.24-7.477a3.023 3.023 0 1 1 0 6.046 3.023 3.023 0 0 1 0-6.046Zm-120.128-.094a3.023 3.023 0 1 1-1.565 5.841 3.023 3.023 0 0 1 1.565-5.84Zm135.342-2.99a3.81 3.81 0 1 1 0 7.619 3.81 3.81 0 0 1 0-7.62ZM.162 68.862a3.81 3.81 0 1 1 7.36 1.972 3.81 3.81 0 0 1-7.36-1.972Zm29.28-5.072a2.65 2.65 0 1 1-1.984 4.913 2.65 2.65 0 0 1 1.985-4.913Zm104.844 1.355a2.65 2.65 0 1 1-5.247.737 2.65 2.65 0 0 1 5.247-.737Zm-117.992-5.89a3.338 3.338 0 1 1-2.5 6.19 3.338 3.338 0 0 1 2.5-6.19Zm132.102 1.708a3.338 3.338 0 1 1-6.61.929 3.338 3.338 0 0 1 6.61-.93Zm-8.594-4.735a3.023 3.023 0 1 1-5.84 1.565 3.023 3.023 0 0 1 5.84-1.565Zm-114.08-2.019a3.023 3.023 0 1 1-3.024 5.237 3.023 3.023 0 0 1 3.024-5.237Zm9.569-3.001a2.65 2.65 0 1 1-3.189 4.23 2.65 2.65 0 0 1 3.189-4.23Zm93.381.423a2.65 2.65 0 1 1-4.877 2.07 2.65 2.65 0 0 1 4.877-2.07Zm26.039-1.904a3.81 3.81 0 1 1-7.36 1.972 3.81 3.81 0 0 1 7.36-1.972ZM10.969 47.183a3.81 3.81 0 1 1-3.809 6.599 3.81 3.81 0 0 1 3.81-6.599Zm12.693-3.781a3.338 3.338 0 1 1-4.017 5.331 3.338 3.338 0 0 1 4.017-5.331Zm117.661.533a3.338 3.338 0 1 1-6.145 2.608 3.338 3.338 0 0 1 6.145-2.608Zm-9.76-2.235a3.023 3.023 0 1 1-5.237 3.024 3.023 3.023 0 0 1 5.237-3.024Zm-97.233-.783a3.023 3.023 0 1 1-4.276 4.276 3.023 3.023 0 0 1 4.276-4.276Zm9.866-.35a2.65 2.65 0 1 1-4.175 3.262 2.65 2.65 0 0 1 4.175-3.262Zm75.556-.537a2.65 2.65 0 1 1-4.175 3.262 2.65 2.65 0 0 1 4.175-3.262Zm24.578-8.608a3.81 3.81 0 1 1-6.599 3.81 3.81 3.81 0 0 1 6.599-3.81Zm-122.515-.987a3.81 3.81 0 1 1-5.387 5.388 3.81 3.81 0 0 1 5.387-5.388Zm33.736 2.159a2.65 2.65 0 1 1-4.877 2.07 2.65 2.65 0 0 1 4.877-2.07Zm52.583-1.46a2.65 2.65 0 1 1-3.189 4.231 2.65 2.65 0 0 1 3.189-4.231Zm-73.251-1.14a3.338 3.338 0 1 1-5.26 4.11 3.338 3.338 0 0 1 5.26-4.11Zm84.962-.194a3.023 3.023 0 1 1-4.276 4.276 3.023 3.023 0 0 1 4.276-4.276Zm-73.76.505a3.023 3.023 0 1 1-5.238 3.024 3.023 3.023 0 0 1 5.237-3.024Zm83.999-.987a3.338 3.338 0 1 1-5.26 4.11 3.338 3.338 0 0 1 5.26-4.11Zm-61.5-1.487a2.65 2.65 0 1 1-5.247.738 2.65 2.65 0 0 1 5.247-.738Zm26.024-2.284a2.65 2.65 0 1 1-1.984 4.913 2.65 2.65 0 0 1 1.984-4.913Zm-14.487-1.912a2.62 2.62 0 1 1-.639 5.201 2.62 2.62 0 0 1 .639-5.201Zm25.325-2.297a3.023 3.023 0 1 1-3.023 5.237 3.023 3.023 0 0 1 3.023-5.237Zm-45.261 1.76a3.023 3.023 0 1 1-5.841 1.565 3.023 3.023 0 0 1 5.84-1.565Zm-10.994-3.15a3.338 3.338 0 1 1-6.145 2.609 3.338 3.338 0 0 1 6.145-2.609Zm66.254-1.84a3.338 3.338 0 1 1-4.018 5.332 3.338 3.338 0 0 1 4.018-5.331Zm14.12-1.68a3.81 3.81 0 1 1-5.388 5.387 3.81 3.81 0 0 1 5.388-5.387Zm-40.217.463a3.023 3.023 0 1 1-1.565 5.84 3.023 3.023 0 0 1 1.565-5.84Zm-16.701-.13a3.023 3.023 0 1 1 0 6.048 3.023 3.023 0 0 1 0-6.047Zm-36.02.304a3.81 3.81 0 1 1-6.6 3.81 3.81 3.81 0 0 1 6.6-3.81Zm28.985-3.118a3.338 3.338 0 1 1-6.611.93 3.338 3.338 0 0 1 6.61-.93Zm32.79-2.877a3.338 3.338 0 1 1-2.5 6.19 3.338 3.338 0 0 1 2.5-6.19ZM80.149 8.66a3.302 3.302 0 1 1-.804 6.553 3.302 3.302 0 0 1 .804-6.553Zm31.274-2.894a3.81 3.81 0 1 1-3.81 6.598 3.81 3.81 0 0 1 3.81-6.598Zm-57.03 2.217a3.81 3.81 0 1 1-7.359 1.972 3.81 3.81 0 0 1 7.36-1.972ZM91.139.163a3.81 3.81 0 1 1-1.972 7.359 3.81 3.81 0 0 1 1.972-7.36ZM70.095 0a3.81 3.81 0 1 1 0 7.619 3.81 3.81 0 0 1 0-7.619Z" id="b"/></defs><use fill="#FFF" xlink:href="#b"/><use fill="url(#a)" xlink:href="#b"/><use fill="url(#c)" xlink:href="#b"/><use fill="url(#d)" xlink:href="#b"/><use fill="url(#e)" xlink:href="#b"/><path d="M80.38 68.181c1.66 0 3.75-1.091 4.999-2.565 1.137-1.346 1.94-3.183 1.94-5.039 0-.255-.02-.51-.057-.71-1.865.073-4.103 1.201-5.427 2.73-1.063 1.164-2.033 3.02-2.033 4.875 0 .29.056.564.075.655.112.018.298.054.503.054Zm-5.724 27.713c2.248 0 3.243-1.474 6.044-1.474 2.838 0 3.483 1.438 5.97 1.438 2.47 0 4.11-2.239 5.677-4.44 1.732-2.53 2.469-4.987 2.487-5.115-.147-.036-4.865-1.947-4.865-7.28 0-4.622 3.704-6.697 3.926-6.86-2.451-3.477-6.192-3.586-7.224-3.586-2.746 0-4.994 1.656-6.431 1.656-1.53 0-3.52-1.547-5.916-1.547-4.551 0-9.158 3.713-9.158 10.701 0 4.368 1.695 8.973 3.814 11.94 1.806 2.51 3.39 4.567 5.676 4.567Z"/></svg>
